<svg width="24" height="24" viewBox="0 0 24 24" fill="none" xmlns="http://www.w3.org/2000/svg">
<path fill-rule="evenodd" clip-rule="evenodd" d="M12 2C6.01672 2 1 5.78116 1 10.6215L1.00013 10.6636L1 10.7039C1 11.2821 1.07811 11.8425 1.22467 12.376C2.13314 15.8635 5.70084 18.5417 10.1685 19.1221H10.1698C10.3065 19.1503 10.4637 19.1955 10.5565 19.2378C10.5696 19.2438 10.5727 19.246 10.5766 19.2489C10.5784 19.2501 10.5803 19.2515 10.5834 19.2534C10.5829 19.2668 10.5836 19.2921 10.5846 19.3254C10.5875 19.428 10.5926 19.6071 10.5726 19.7528L10.5683 19.7777C10.5461 19.9047 10.4514 20.4474 10.4303 20.5631V20.5644C10.427 20.5824 10.4229 20.6023 10.4183 20.6239C10.3781 20.8157 10.3088 21.1464 10.5901 21.5567C10.7466 21.785 11.0707 21.9698 11.3743 21.995C11.6778 22.0203 11.9564 21.9476 12.2672 21.8207C12.9788 21.5352 14.3997 20.7219 16.0404 19.6345C17.6796 18.548 19.4499 17.2299 20.6085 15.9643C21.3895 15.1501 21.9838 14.3043 22.3846 13.4234C22.7796 12.5963 23 11.675 23 10.7039L22.9999 10.6633L23 10.6215C23 5.78176 17.9833 2 12 2Z" stroke="black" stroke-width="2"/>
<mask id="path-2-inside-1_17_1028" fill="white">
<path d="M11 8.66808C11 8.26267 11.3256 8.00635 11.6615 8.00012C11.863 7.99638 12.0681 8.08337 12.2096 8.28137L13.6667 10.6681V8.66808C13.6667 8.30008 13.9653 8.00142 14.3333 8.00142C14.7013 8.00142 15 8.30008 15 8.66808V12.6681C15 13.3168 14.1677 13.5828 13.7904 13.0548L12.3333 10.7488V12.6681C12.3333 13.0361 12.0347 13.3348 11.6667 13.3348C11.2987 13.3348 11 13.0361 11 12.6681V8.66808Z"/>
<path d="M5 8.66808C5 8.30008 5.29867 8.00142 5.66667 8.00142C6.03467 8.00142 6.33333 8.30008 6.33333 8.66808V12.0014H7.66667C8.03467 12.0014 8.33333 12.3001 8.33333 12.6681C8.33333 13.0361 8.03467 13.3348 7.66667 13.3348H5.66667C5.29867 13.3348 5 13.0361 5 12.6681V8.66808Z"/>
<path d="M9 8.66808C9 8.30008 9.29867 8.00142 9.66667 8.00142C10.0347 8.00142 10.3333 8.30008 10.3333 8.66808V12.6681C10.3333 13.0361 10.0347 13.3348 9.66667 13.3348C9.29867 13.3348 9 13.0361 9 12.6681V8.66808Z"/>
<path d="M15.6667 8.66808C15.6667 8.30008 15.9653 8.00142 16.3333 8.00142H18.3333C18.7013 8.00142 19 8.30008 19 8.66808C19 9.03608 18.7013 9.33475 18.3333 9.33475H17V10.0014H18.3333C18.702 10.0014 19 10.3001 19 10.6681C19 11.0361 18.702 11.3347 18.3333 11.3347H17V12.0014H18.3333C18.7013 12.0014 19 12.3001 19 12.6681C19 13.0361 18.7013 13.3348 18.3333 13.3348H16.3333C15.9653 13.3348 15.6667 13.0361 15.6667 12.6681V8.66808Z"/>
</mask>
<path d="M11.6615 8.00012L11.6986 9.99977L11.6986 9.99977L11.6615 8.00012ZM12.2096 8.28137L13.9167 7.23926L13.8789 7.17743L13.8368 7.1185L12.2096 8.28137ZM13.6667 10.6681L11.9596 11.7102L15.6667 17.7826V10.6681H13.6667ZM13.7904 13.0548L12.0996 14.1231L12.13 14.1713L12.1632 14.2177L13.7904 13.0548ZM12.3333 10.7488L14.0241 9.6805L10.3333 3.83926V10.7488H12.3333ZM6.33333 12.0014H4.33333V14.0014H6.33333V12.0014ZM17 9.33475V7.33475H15V9.33475H17ZM17 10.0014H15V12.0014H17V10.0014ZM17 11.3347V9.33475H15V11.3347H17ZM17 12.0014H15V14.0014H17V12.0014ZM11.6615 8.00012L11.6244 6.00046C10.3592 6.02393 9 7.01868 9 8.66808H11H13C13 9.03627 12.8392 9.39392 12.5718 9.64426C12.3266 9.87386 12.0153 9.99389 11.6986 9.99977L11.6615 8.00012ZM12.2096 8.28137L13.8368 7.1185C13.2928 6.35725 12.4504 5.98513 11.6244 6.00046L11.6615 8.00012L11.6986 9.99977C11.2755 10.0076 10.8435 9.80948 10.5824 9.44423L12.2096 8.28137ZM13.6667 10.6681L15.3737 9.62598L13.9167 7.23926L12.2096 8.28137L10.5026 9.32347L11.9596 11.7102L13.6667 10.6681ZM13.6667 8.66808H11.6667V10.6681H13.6667H15.6667V8.66808H13.6667ZM14.3333 8.00142V6.00142C12.8608 6.00142 11.6667 7.19552 11.6667 8.66808H13.6667H15.6667C15.6667 9.40465 15.0699 10.0014 14.3333 10.0014V8.00142ZM15 8.66808H17C17 7.19551 15.8059 6.00142 14.3333 6.00142V8.00142V10.0014C13.5968 10.0014 13 9.40465 13 8.66808H15ZM15 12.6681H17V8.66808H15H13V12.6681H15ZM13.7904 13.0548L12.1632 14.2177C13.6674 16.3226 17 15.2694 17 12.6681H15H13C13 11.3641 14.668 10.843 15.4176 11.8919L13.7904 13.0548ZM12.3333 10.7488L10.6426 11.8171L12.0996 14.1231L13.7904 13.0548L15.4811 11.9865L14.0241 9.6805L12.3333 10.7488ZM12.3333 12.6681H14.3333V10.7488H12.3333H10.3333V12.6681H12.3333ZM11.6667 13.3348V15.3348C13.1392 15.3348 14.3333 14.1406 14.3333 12.6681H12.3333H10.3333C10.3333 11.9315 10.9301 11.3348 11.6667 11.3348V13.3348ZM11 12.6681H9C9 14.1406 10.1941 15.3348 11.6667 15.3348V13.3348V11.3348C12.4032 11.3348 13 11.9315 13 12.6681H11ZM11 8.66808H9V12.6681H11H13V8.66808H11ZM5.66667 8.00142V6.00142C4.1941 6.00142 3 7.19551 3 8.66808H5H7C7 9.40466 6.40324 10.0014 5.66667 10.0014V8.00142ZM6.33333 8.66808H8.33333C8.33333 7.19552 7.13924 6.00142 5.66667 6.00142V8.00142V10.0014C4.9301 10.0014 4.33333 9.40465 4.33333 8.66808H6.33333ZM6.33333 12.0014H8.33333V8.66808H6.33333H4.33333V12.0014H6.33333ZM7.66667 12.0014V10.0014H6.33333V12.0014V14.0014H7.66667V12.0014ZM8.33333 12.6681H10.3333C10.3333 11.1955 9.13924 10.0014 7.66667 10.0014V12.0014V14.0014C6.9301 14.0014 6.33333 13.4047 6.33333 12.6681H8.33333ZM7.66667 13.3348V15.3348C9.13924 15.3348 10.3333 14.1407 10.3333 12.6681H8.33333H6.33333C6.33333 11.9315 6.93009 11.3348 7.66667 11.3348V13.3348ZM5.66667 13.3348V15.3348H7.66667V13.3348V11.3348H5.66667V13.3348ZM5 12.6681H3C3 14.1407 4.1941 15.3348 5.66667 15.3348V13.3348V11.3348C6.40324 11.3348 7 11.9315 7 12.6681H5ZM5 8.66808H3V12.6681H5H7V8.66808H5ZM9.66667 8.00142V6.00142C8.1941 6.00142 7 7.19551 7 8.66808H9H11C11 9.40466 10.4032 10.0014 9.66667 10.0014V8.00142ZM10.3333 8.66808H12.3333C12.3333 7.19552 11.1392 6.00142 9.66667 6.00142V8.00142V10.0014C8.9301 10.0014 8.33333 9.40465 8.33333 8.66808H10.3333ZM10.3333 12.6681H12.3333V8.66808H10.3333H8.33333V12.6681H10.3333ZM9.66667 13.3348V15.3348C11.1392 15.3348 12.3333 14.1406 12.3333 12.6681H10.3333H8.33333C8.33333 11.9315 8.93009 11.3348 9.66667 11.3348V13.3348ZM9 12.6681H7C7 14.1407 8.1941 15.3348 9.66667 15.3348V13.3348V11.3348C10.4032 11.3348 11 11.9315 11 12.6681H9ZM9 8.66808H7V12.6681H9H11V8.66808H9ZM16.3333 8.00142V6.00142C14.8608 6.00142 13.6667 7.19551 13.6667 8.66808H15.6667H17.6667C17.6667 9.40465 17.0699 10.0014 16.3333 10.0014V8.00142ZM18.3333 8.00142V6.00142H16.3333V8.00142V10.0014H18.3333V8.00142ZM19 8.66808H21C21 7.19552 19.8059 6.00142 18.3333 6.00142V8.00142V10.0014C17.5968 10.0014 17 9.40465 17 8.66808H19ZM18.3333 9.33475V11.3348C19.8059 11.3348 21 10.1407 21 8.66808H19H17C17 7.93152 17.5968 7.33475 18.3333 7.33475V9.33475ZM17 9.33475V11.3348H18.3333V9.33475V7.33475H17V9.33475ZM17 10.0014H19V9.33475H17H15V10.0014H17ZM18.3333 10.0014V8.00142H17V10.0014V12.0014H18.3333V10.0014ZM19 10.6681H21C21 9.19682 19.8079 8.00142 18.3333 8.00142V10.0014V12.0014C17.5961 12.0014 17 11.4033 17 10.6681H19ZM18.3333 11.3347V13.3347C19.8079 13.3347 21 12.1394 21 10.6681H19H17C17 9.93282 17.5961 9.33475 18.3333 9.33475V11.3347ZM17 11.3347V13.3347H18.3333V11.3347V9.33475H17V11.3347ZM17 12.0014H19V11.3347H17H15V12.0014H17ZM18.3333 12.0014V10.0014H17V12.0014V14.0014H18.3333V12.0014ZM19 12.6681H21C21 11.1955 19.8059 10.0014 18.3333 10.0014V12.0014V14.0014C17.5968 14.0014 17 13.4047 17 12.6681H19ZM18.3333 13.3348V15.3348C19.8059 15.3348 21 14.1406 21 12.6681H19H17C17 11.9315 17.5968 11.3348 18.3333 11.3348V13.3348ZM16.3333 13.3348V15.3348H18.3333V13.3348V11.3348H16.3333V13.3348ZM15.6667 12.6681H13.6667C13.6667 14.1407 14.8608 15.3348 16.3333 15.3348V13.3348V11.3348C17.0699 11.3348 17.6667 11.9315 17.6667 12.6681H15.6667ZM15.6667 8.66808H13.6667V12.6681H15.6667H17.6667V8.66808H15.6667Z" fill="black" mask="url(#path-2-inside-1_17_1028)"/>
</svg>
